<?xml version="1.0" encoding="utf-8"?>
<!-- Generator: Adobe Illustrator 26.0.2, SVG Export Plug-In . SVG Version: 6.00 Build 0)  -->
<svg version="1.1" id="Layer_1" xmlns="http://www.w3.org/2000/svg" xmlns:xlink="http://www.w3.org/1999/xlink" x="0px" y="0px"
	 viewBox="0 0 1280 1280" style="enable-background:new 0 0 1280 1280;" xml:space="preserve">
<style type="text/css">
	.st0{fill:url(#SVGID_1_);}
	.st1{fill:url(#SVGID_00000029741517924896235860000013682190225832082326_);}
	.st2{fill:url(#SVGID_00000143588740227994910620000004737707974028640183_);}
	.st3{fill:url(#SVGID_00000056387548746518434330000018250964537205083532_);}
	.st4{fill-rule:evenodd;clip-rule:evenodd;fill:url(#SVGID_00000182529751229855716630000014639070927869946536_);}
	.st5{fill-rule:evenodd;clip-rule:evenodd;fill:url(#SVGID_00000148623573331197728690000017751087908589712821_);}
	.st6{fill-rule:evenodd;clip-rule:evenodd;fill:url(#SVGID_00000060017110425359562870000013973039894738455721_);}
	.st7{fill-rule:evenodd;clip-rule:evenodd;fill:url(#SVGID_00000038412732164792010350000004035396580608180118_);}
	.st8{fill-rule:evenodd;clip-rule:evenodd;fill:url(#SVGID_00000003079114480164180050000015682191506209111217_);}
	.st9{fill-rule:evenodd;clip-rule:evenodd;fill:url(#SVGID_00000054964764538017820870000009794877579025077159_);}
	.st10{fill:url(#SVGID_00000047053302633675431230000007104287109245917829_);}
	.st11{fill-rule:evenodd;clip-rule:evenodd;fill:#FFFFFF;}
	.st12{fill:url(#SVGID_00000179621430176333615500000014379505987203226003_);}
	.st13{fill-rule:evenodd;clip-rule:evenodd;fill:url(#SVGID_00000073697796601291519190000012976980666562544570_);}
	.st14{fill-rule:evenodd;clip-rule:evenodd;fill:url(#SVGID_00000178903442822989164390000015832188130063869867_);}
	.st15{fill:#FFFFFF;}
	.st16{fill-rule:evenodd;clip-rule:evenodd;fill:url(#SVGID_00000076581418907982359230000013048443854058596787_);}
	.st17{fill-rule:evenodd;clip-rule:evenodd;fill:url(#SVGID_00000178899523225728206130000006504802983557940865_);}
</style>
<g>
	<g>
		<linearGradient id="SVGID_1_" gradientUnits="userSpaceOnUse" x1="78.4747" y1="644.0851" x2="1195.2274" y2="644.0851">
			<stop  offset="0" style="stop-color:#FF6633"/>
			<stop  offset="0.3304" style="stop-color:#FD5D32"/>
			<stop  offset="0.8782" style="stop-color:#F7432E"/>
			<stop  offset="0.9944" style="stop-color:#F53D2D"/>
		</linearGradient>
		<path class="st0" d="M1031.84,1195.57H241.86c-90.23,0-163.38-73.15-163.38-163.38V255.98c0-90.23,73.15-163.38,163.38-163.38
			h789.99c90.23,0,163.38,73.15,163.38,163.38v776.21C1195.23,1122.43,1122.08,1195.57,1031.84,1195.57z"/>
	</g>
	<g>
		<path class="st11" d="M1020.59,429.5c0-9.15-7.35-16.57-16.44-16.57H826.02c-4.36-116.28-87.37-209.01-189.15-209.01
			c-101.78,0-184.79,92.73-189.15,209.01H269.35c-8.95,0.17-16.17,7.52-16.17,16.57c0,0.43,0.03,0.87,0.07,1.3h-0.13l25.42,560.53
			c0,1.56,0.07,3.13,0.2,4.72c0,0.37,0.03,0.7,0.07,1.06l0.07,1.2l0.07,0.03c3.86,39.03,32.17,70.44,70.64,71.9l0.1,0.07h568.65
			l0.03-0.03c39.16-1.06,70.9-32.91,74.23-72.4l0.03-0.03l0.03-0.53c0.03-0.4,0.07-0.8,0.07-1.23c0.07-1,0.13-2,0.13-2.96
			l27.75-562.76h-0.03C1020.59,430.06,1020.59,429.79,1020.59,429.5z M636.87,254.49c74.13,0,134.58,70.37,137.41,158.44H499.46
			C502.28,324.86,562.71,254.49,636.87,254.49z M777.51,852.35c-5.02,41.59-30.24,74.93-69.31,91.6
			c-21.76,9.32-50.94,14.34-74.06,12.74c-36.07-1.36-69.94-10.15-101.15-26.18c-11.18-5.72-27.78-17.17-40.56-27.88
			c-3.23-2.7-3.63-4.42-1.5-7.49c1.16-1.73,3.29-4.86,8.02-11.78c6.82-10.01,7.65-11.25,8.45-12.44c2.16-3.33,5.72-3.63,9.22-0.87
			c0.37,0.27,0.37,0.27,0.67,0.5c0.57,0.43,0.57,0.43,1.93,1.5c1.36,1.06,2.16,1.7,2.5,1.93c33.67,26.38,72.9,41.59,112.49,43.12
			c55.1-0.77,94.72-25.52,101.81-63.55c7.82-41.86-25.05-78.02-89.33-98.18c-20.13-6.29-70.94-26.65-80.32-32.14
			c-43.99-25.82-64.58-59.62-61.65-101.41c4.49-57.89,58.23-101.08,126.17-101.38c30.38-0.03,60.69,6.26,89.8,18.53
			c10.31,4.36,28.71,14.37,35.07,19.1c3.66,2.7,4.39,5.82,2.3,9.22c-1.2,1.96-3.13,5.06-7.19,11.55l-0.07,0.07
			c-5.36,8.52-5.52,8.78-6.75,10.78c-2.13,3.26-4.66,3.56-8.48,1.13c-31.18-20.93-65.71-31.47-103.71-32.24
			c-47.28,0.93-82.71,29.08-85.04,67.44c-0.63,34.64,25.35,59.89,81.45,79.19C742.14,741.78,785.73,784.67,777.51,852.35z"/>
	</g>
</g>
</svg>
